<svg width="1419" height="1251" viewBox="0 0 1419 1251" fill="none" xmlns="http://www.w3.org/2000/svg">
<path fill-rule="evenodd" clip-rule="evenodd" d="M709.68 12.5749C851.335 43.561 912.021 187.899 1028.6 266.264C1142.2 342.624 1315.38 351.06 1380.98 463.812C1449.19 581.037 1413.44 724.521 1368.5 850.41C1323.37 976.813 1257.07 1108.7 1127.61 1173.48C1002.96 1235.85 852.288 1173.02 709.68 1180.08C554.527 1187.76 373.173 1308.64 256.75 1216.58C137.011 1121.89 273.764 935.905 227.764 798.994C183.592 667.526 -4.82521 589.892 0.0946022 452.685C5.26056 308.614 120.526 178.729 252.95 96.595C383.883 15.3852 554.912 -21.2796 709.68 12.5749Z" fill="#FFB0C0"/>
<rect x="1281.57" y="924.926" width="37.313" height="972.541" rx="18.6565" transform="rotate(89.7133 1281.57 924.926)" fill="#F5365C"/>
<g clip-path="url(#clip0)">
<path fill-rule="evenodd" clip-rule="evenodd" d="M871.833 933H309V319H667.167V523.667H871.833V933ZM462.5 805.083H385.75V907.417H462.5V805.083ZM590.417 805.083H513.667V907.417H590.417V805.083ZM795.083 805.083H718.333V907.417H795.083V805.083ZM411.333 677.167H360.167V728.333H411.333V677.167ZM616 677.167H564.833V728.333H616V677.167ZM513.667 677.167H462.5V728.333H513.667V677.167ZM743.917 677.167H692.75V728.333H743.917V677.167ZM820.667 677.167H769.5V728.333H820.667V677.167ZM411.333 574.833H360.167V626H411.333V574.833ZM616 574.833H564.833V626H616V574.833ZM513.667 574.833H462.5V626H513.667V574.833ZM743.917 574.833H692.75V626H743.917V574.833ZM820.667 574.833H769.5V626H820.667V574.833ZM411.333 472.5H360.167V523.667H411.333V472.5ZM616 472.5H564.833V523.667H616V472.5ZM513.667 472.5H462.5V523.667H513.667V472.5ZM411.333 370.167H360.167V421.333H411.333V370.167ZM616 370.167H564.833V421.333H616V370.167ZM513.667 370.167H462.5V421.333H513.667V370.167Z" fill="#A81432"/>
</g>
<path fill-rule="evenodd" clip-rule="evenodd" d="M837.208 892.583H877.625V448H1241.37V892.583H1281.79V933H837.208V892.583ZM978.667 831.958V912.792H1039.29V831.958H978.667ZM1079.71 831.958V912.792H1140.33V831.958H1079.71ZM958.458 730.917H918.042V771.333H958.458V730.917ZM1120.12 730.917H1079.71V771.333H1120.12V730.917ZM1039.29 730.917H998.875V771.333H1039.29V730.917ZM1200.96 730.917H1160.54V771.333H1200.96V730.917ZM958.458 650.083H918.042V690.5H958.458V650.083ZM1120.12 650.083H1079.71V690.5H1120.12V650.083ZM1039.29 650.083H998.875V690.5H1039.29V650.083ZM1200.96 650.083H1160.54V690.5H1200.96V650.083ZM958.458 569.25H918.042V609.667H958.458V569.25ZM1120.12 569.25H1079.71V609.667H1120.12V569.25ZM1039.29 569.25H998.875V609.667H1039.29V569.25ZM1200.96 569.25H1160.54V609.667H1200.96V569.25ZM958.458 488.417H918.042V528.833H958.458V488.417ZM1120.12 488.417H1079.71V528.833H1120.12V488.417ZM1039.29 488.417H998.875V528.833H1039.29V488.417ZM1200.96 488.417H1160.54V528.833H1200.96V488.417Z" fill="#A81432"/>
<defs>
<clipPath id="clip0">
<rect width="614" height="614" fill="white" transform="translate(258 338)"/>
</clipPath>
</defs>
</svg>
