<svg width="800" height="800" viewBox="0 0 800 800" fill="none" xmlns="http://www.w3.org/2000/svg">
<rect width="800" height="800" fill="#FFB0C0"/>
<path fill-rule="evenodd" clip-rule="evenodd" d="M120 653.333H170.818V96H628.182V653.333H679V704H120V653.333ZM297.864 577.333V678.667H374.091V577.333H297.864ZM424.909 577.333V678.667H501.136V577.333H424.909ZM272.455 450.667H221.636V501.333H272.455V450.667ZM475.727 450.667H424.909V501.333H475.727V450.667ZM374.091 450.667H323.273V501.333H374.091V450.667ZM577.364 450.667H526.545V501.333H577.364V450.667ZM272.455 349.333H221.636V400H272.455V349.333ZM475.727 349.333H424.909V400H475.727V349.333ZM374.091 349.333H323.273V400H374.091V349.333ZM577.364 349.333H526.545V400H577.364V349.333ZM272.455 248H221.636V298.667H272.455V248ZM475.727 248H424.909V298.667H475.727V248ZM374.091 248H323.273V298.667H374.091V248ZM577.364 248H526.545V298.667H577.364V248ZM272.455 146.667H221.636V197.333H272.455V146.667ZM475.727 146.667H424.909V197.333H475.727V146.667ZM374.091 146.667H323.273V197.333H374.091V146.667ZM577.364 146.667H526.545V197.333H577.364V146.667Z" fill="#A81432"/>
</svg>
