<svg width="1210" height="1183" viewBox="0 0 1210 1183" fill="none" xmlns="http://www.w3.org/2000/svg">
<path fill-rule="evenodd" clip-rule="evenodd" d="M1200.52 575.01C1186.86 691.935 1134.49 799.334 1057.63 888.501C985.45 972.242 883.779 1014.15 782.933 1059.46C667.895 1111.15 549.236 1213.53 430.825 1170.12C312.199 1126.64 306.481 960.5 232.852 857.827C159.626 755.715 -3.55085 697.325 1.74576 571.783C7.07765 445.403 176.826 401.407 256.261 302.968C329.798 211.838 340.844 66.2769 447.918 18.8682C556.738 -29.3137 678.173 34.3804 793.104 65.2712C915.67 98.2145 1058.32 105.089 1137.56 204.23C1217.8 304.613 1215.43 447.371 1200.52 575.01Z" fill="#A81432" fill-opacity="0.7"/>
<path d="M637 440.055C637 435.085 632.971 431.055 628 431.055C623.029 431.055 619 435.085 619 440.055V1040.06C619 1045.03 623.029 1049.06 628 1049.06C632.971 1049.06 637 1045.03 637 1040.06V440.055Z" fill="#2B254E"/>
<path fill-rule="evenodd" clip-rule="evenodd" d="M282 468.055L274.5 503.055L228.5 515.055L147 538.055L175 503.055L129.5 512.055L169.5 488.629L134.5 488.555L98 465.055L141.5 468.129C182.167 473.08 202.5 475.555 202.5 475.555C202.5 475.555 182.167 463.055 141.5 438.055L282 468.055ZM1016 495.055L1156.5 465.055C1134.83 480.104 1124 487.629 1124 487.629C1124 487.629 1136.67 490.104 1162 495.055L1202 522.055L1162 511.129L1110.5 511.055L1168.5 539.055L1104.5 522.055L1151 565.055L1076.5 530.055H1023.5L1016 495.055ZM641.016 212.035L639.828 184.007L628.83 162.449L657.742 182.785L656.152 157.096L623.106 133L636.331 135.523L663.406 151.653L671.53 177.845L678.676 138.498L684.877 170.401L701.061 148.485L690.293 189.931L711.5 165.555L693 216.055L641.016 212.035ZM513.338 797.872L539.716 815.454L533.906 862.291L525.051 945.799L516.911 933.843L513.411 902.843L479.911 945.843L494.248 891.488L472.911 933.843L453.911 956.843L460.411 928.343C473.411 895.677 479.911 879.343 479.911 879.343C479.911 879.343 473.411 890.01 460.411 911.343L440.476 920.869L513.338 797.872ZM648.348 819.881L679.013 827.917L688.768 874.094L707.583 955.935L695.5 945.629L683.74 918.244L682.592 919.109L682.5 977.129L676 964.629L664.5 889.129H663L659 945.629L652 981.129H650L645.5 945.629V914.629L637 939.129L619.5 959.898L648.348 819.881Z" fill="#FFD25B"/>
<path fill-rule="evenodd" clip-rule="evenodd" d="M628 430.629L575.5 565.129H703L665.5 440.629L628 430.629Z" fill="#FFD25B"/>
<mask id="mask0" mask-type="alpha" maskUnits="userSpaceOnUse" x="482" y="555" width="238" height="303">
<path d="M509.5 736.055L488.072 792.096C481.841 808.39 480.769 826.205 485 843.129C488.667 848.462 496.833 852.129 509.5 854.129C522.167 856.129 531.352 856.18 537.055 854.283L544.019 846.737C552.919 837.093 559.834 825.791 564.369 813.475L620.217 661.823L628 661.629V806.797C628 823.343 632.704 839.549 641.564 853.523C648.855 855.927 657.333 857.129 667 857.129C676.667 857.129 683.167 855.296 686.5 851.629C697.252 838.922 703.945 823.281 705.714 806.729L720 673.055L703 565.129C692.778 562.462 680.278 561.129 665.5 561.129C650.722 561.129 620.722 559.271 575.5 555.555L509.5 736.055Z" fill="white"/>
</mask>
<g mask="url(#mask0)">
<path d="M509.5 736.055L488.072 792.096C481.841 808.39 480.769 826.205 485 843.129C488.667 848.462 496.833 852.129 509.5 854.129C522.167 856.129 531.352 856.18 537.055 854.283L544.019 846.737C552.919 837.093 559.834 825.791 564.369 813.475L620.217 661.823L628 661.629V806.797C628 823.343 632.704 839.549 641.564 853.523C648.855 855.927 657.333 857.129 667 857.129C676.667 857.129 683.167 855.296 686.5 851.629C697.252 838.922 703.945 823.281 705.714 806.729L720 673.055L703 565.129C692.778 562.462 680.278 561.129 665.5 561.129C650.722 561.129 620.722 559.271 575.5 555.555L509.5 736.055Z" fill="#324E31"/>
<path fill-rule="evenodd" clip-rule="evenodd" d="M578.666 775.146L543.5 782.629L580.236 745.187L569.973 683.065L607.374 705.053L578.666 775.146Z" fill="#FFD25B"/>
</g>
<path fill-rule="evenodd" clip-rule="evenodd" d="M700 439.555C727.333 458.889 755.167 472.555 783.5 480.555C811.833 488.555 893.667 488.555 1029 480.555V565.129L854.059 571.557C843.748 571.936 833.441 570.717 823.504 567.943L720 539.055L783.5 720.055L760.708 722.747L748.5 711.129L743.5 722.629L713.249 728.351L703 711.129L692.658 730.782L648 736.055L659 443.555L700 439.555ZM592.5 431.055L630.5 437.555L526.5 736.055L483 726.629L479 714.129L467.31 723.343L457 721.129V699.129L437.615 718.255L413 714.055L526.5 509.555C491.167 524.604 465.167 532.129 448.5 532.129C431.833 532.129 372.167 532.129 269.5 532.129V492.629V453.555C387.167 446.889 459.667 443.555 487 443.555C514.333 443.555 549.5 439.389 592.5 431.055Z" fill="#2B254E"/>
<path fill-rule="evenodd" clip-rule="evenodd" d="M1029 480.555H1116.75C1120.75 480.555 1124 483.801 1124 487.805C1124 491.809 1120.75 495.055 1116.75 495.055H1029V480.555ZM182.25 480.555H270V495.055H182.25C178.246 495.055 175 491.809 175 487.805C175 483.801 178.246 480.555 182.25 480.555Z" fill="#847DAA"/>
<path fill-rule="evenodd" clip-rule="evenodd" d="M685.145 464.555L695.432 624.072L695.5 624.055L697 640.129L691.5 640.055V625.497L682.162 626.355L683.5 640.629H678V626.738L669.18 627.549L670.5 641.629H665V627.933L656 628.761V642.629H651.5L651.986 628.528L648.229 464.555C634.773 464.555 623.196 464.555 622.5 464.555C621 464.555 602 427.555 672 433.055C696.571 434.986 708.709 429.461 716 433.055C720.86 435.451 721.694 442.118 718.5 453.055C706.833 460.722 696.833 464.555 688.5 464.555C687.582 464.555 686.452 464.555 685.145 464.555Z" fill="#60588E"/>
<path fill-rule="evenodd" clip-rule="evenodd" d="M481.5 334.129C486.014 353.984 499.014 369.46 520.5 380.555C541.986 391.651 574.986 400.151 619.5 406.055L752.316 406.121L775.361 395.945L788.157 390.294C802.544 383.941 815.039 373.967 824.424 361.346L829 355.191C828.18 350.649 815.347 343.296 790.5 333.129C765.653 322.962 733.291 312.157 693.414 300.713C677.42 289.908 653.711 287.319 622.286 292.946C593.976 298.015 550.392 297.975 498 319.129C494.157 320.681 488.657 325.681 481.5 334.129Z" fill="#2B254E"/>
<path fill-rule="evenodd" clip-rule="evenodd" d="M580.5 425.055C574.5 426.389 571.5 431.222 571.5 439.555C571.5 447.889 588.5 456.247 622.5 464.629C626.724 458.472 630.891 454.139 635 451.629C639.109 449.119 646.442 446.428 657 443.555L580.5 425.055Z" fill="#847DAA"/>
<mask id="mask1" mask-type="alpha" maskUnits="userSpaceOnUse" x="538" y="268" width="222" height="175">
<path d="M648.862 442.041C671.226 442.041 680.278 442.621 708.734 436.207C716.102 434.546 717.177 430.278 723.373 426.735C727.321 424.478 732.351 421.266 735.727 419.906C759.127 410.478 759.403 380.253 759.403 354.943C759.403 318.664 716.658 285.465 686.077 272.79C668.883 265.663 671.125 271.222 648.862 271.222C633.473 271.222 644.884 265.333 631.537 270.478C591.235 286.015 543.307 315.95 539.009 351.594C535.864 377.678 544.155 414.903 574.564 426.79C576.372 427.497 584.48 430.165 588.172 431.895C591.701 433.55 592.573 436.599 594.269 437.288C610.38 443.832 628.34 442.041 648.862 442.041Z" fill="white"/>
</mask>
<g mask="url(#mask1)">
<path d="M639.797 441.562C662.038 443.9 670.981 445.423 699.951 442.019C707.452 441.137 708.967 437.004 715.5 434.129C719.662 432.297 725 429.629 728.5 428.629C752.757 421.698 756.191 391.667 758.836 366.497C762.629 330.416 723.588 292.931 694.5 277.129C678.145 268.244 679.793 274.006 657.652 271.679C642.348 270.071 654.312 265.406 640.5 269.129C598.795 280.368 548 305.129 540 340.129C534.146 365.741 538.5 403.629 567.5 418.629C569.225 419.521 577.009 423.021 580.5 425.129C583.837 427.143 584.385 430.266 586 431.129C601.339 439.321 619.388 439.417 639.797 441.562Z" fill="#FF6D5B"/>
</g>
<path fill-rule="evenodd" clip-rule="evenodd" d="M606.488 317.007L620.16 318.929C625.046 319.615 629.281 322.66 631.488 327.073C637.058 338.209 639.731 344.575 639.507 346.171C639.283 347.765 635.119 352.081 627.015 359.12C623.739 361.966 619.39 363.253 615.092 362.649L599.249 360.422C594.615 359.771 590.551 356.995 588.259 352.916C583.978 345.297 581.994 340.372 582.307 338.142C582.625 335.886 586.099 330.651 592.73 322.438C596.042 318.335 601.266 316.273 606.488 317.007ZM704.969 328.39L714.806 329.251C719.984 329.704 724.558 332.805 726.896 337.446C732.116 347.811 734.658 353.78 734.52 355.353C734.384 356.915 730.982 361.28 724.316 368.448C721.166 371.834 716.631 373.579 712.024 373.176L700.036 372.127C695.086 371.694 690.671 368.837 688.248 364.498C684.371 357.557 682.527 353.001 682.717 350.83C682.911 348.613 685.708 343.377 691.109 335.122C694.135 330.495 699.461 327.908 704.969 328.39Z" fill="white"/>
<path fill-rule="evenodd" clip-rule="evenodd" d="M616 345.629C612.134 345.629 609 342.495 609 338.629C609 334.763 612.134 331.629 616 331.629C619.866 331.629 623 334.763 623 338.629C623 342.495 619.866 345.629 616 345.629ZM710.819 356.811C706.953 356.811 703.819 353.677 703.819 349.811C703.819 345.945 706.953 342.811 710.819 342.811C714.685 342.811 717.819 345.945 717.819 349.811C717.819 353.677 714.685 356.811 710.819 356.811ZM665.634 336.538C665.908 335.877 666.514 335.413 667.223 335.321C668.319 335.178 669.322 335.951 669.464 337.046L674.67 377.091C674.691 377.253 674.692 377.416 674.674 377.578C674.547 378.675 673.555 379.462 672.458 379.336L651.634 376.933C651.45 376.912 651.269 376.865 651.097 376.793C650.077 376.37 649.593 375.2 650.016 374.18L665.634 336.538ZM576.74 377.051L600.357 377.905L617.864 391.718L638.858 383.734L654.369 397.686L678.715 387.463L691.882 396.566L704.397 389.175L732.423 395.736L704.99 397.655L686.873 410.951L674.923 397.752L651.68 409.402L635.066 394.023L618.701 403.689L598.955 386.524L576.74 377.051Z" fill="#2B254E"/>
<path fill-rule="evenodd" clip-rule="evenodd" d="M626.439 213.655L623.5 246.555L701 256.055L702.496 222.024C702.791 215.312 698.276 209.337 691.739 207.787C678.107 204.555 667.396 202.498 659.606 201.617C653.395 200.914 646.832 200.678 639.918 200.909C632.851 201.144 627.069 206.612 626.439 213.655Z" fill="#60588E"/>
<mask id="mask2" mask-type="alpha" maskUnits="userSpaceOnUse" x="481" y="209" width="348" height="148">
<path d="M628 209.129C607.667 252.462 578.667 281.771 541 297.055C516.128 307.148 498.433 312.98 489.196 322.762C486.268 325.863 483.703 329.652 481.5 334.129C490.318 336.902 496.818 338.736 501 339.629C552.5 350.629 590.832 344.542 614 340.129C625.06 338.022 641.84 333.939 664.341 327.88C677.215 324.414 690.652 323.556 703.861 325.359C758.924 332.871 792.637 338.628 805 342.629C818.82 347.101 826.714 351.577 828.683 356.055C830.162 345.697 826.464 337.559 817.589 331.64C813.265 328.757 788.04 323.068 769.5 311.055C759.397 304.509 745.282 292.008 727.156 273.553C716.357 262.558 708.833 248.773 705.426 233.742L702 218.629L628 209.129Z" fill="white"/>
</mask>
<g mask="url(#mask2)">
<path d="M628 209.129C607.667 252.462 578.667 281.771 541 297.055C516.128 307.148 498.433 312.98 489.196 322.762C486.268 325.863 483.703 329.652 481.5 334.129C490.318 336.902 496.818 338.736 501 339.629C552.5 350.629 590.832 344.542 614 340.129C625.06 338.022 641.84 333.939 664.341 327.88C677.215 324.414 690.652 323.556 703.861 325.359C758.924 332.871 792.637 338.628 805 342.629C818.82 347.101 826.714 351.577 828.683 356.055C830.162 345.697 826.464 337.559 817.589 331.64C813.265 328.757 788.04 323.068 769.5 311.055C759.397 304.509 745.282 292.008 727.156 273.553C716.357 262.558 708.833 248.773 705.426 233.742L702 218.629L628 209.129Z" fill="#60588E"/>
<mask id="mask3" mask-type="alpha" maskUnits="userSpaceOnUse" x="582" y="212" width="92" height="71">
<path d="M582.5 272.129L614.5 251.129L628 282.629L644 251.129L674 247.129L644 233.629L623.5 212.629L582.5 272.129Z" fill="white"/>
</mask>
<g mask="url(#mask3)">
<path d="M582.5 272.129L614.5 251.129L628 282.629L644 251.129L674 247.129L644 233.629L623.5 212.629L582.5 272.129Z" fill="#2B254E"/>
<path fill-rule="evenodd" clip-rule="evenodd" d="M636 226.129L614.5 277.629L628 290.129L688.5 247.629L636 226.129Z" fill="#FFD25B"/>
</g>
</g>
<path fill-rule="evenodd" clip-rule="evenodd" d="M363 318.629L356 340.129C339.333 340.129 331 340.129 331 340.129C331 340.129 339.333 342.296 356 346.629C358.667 364.296 360 373.129 360 373.129C360 373.129 361.667 365.129 365 349.129L386.5 344.129L365 340.129L363 318.629Z" fill="#FFD25B"/>
<path fill-rule="evenodd" clip-rule="evenodd" d="M876 209.629L869 231.129C852.333 231.129 844 231.129 844 231.129C844 231.129 852.333 233.296 869 237.629C871.667 255.296 873 264.129 873 264.129C873 264.129 874.667 256.129 878 240.129L899.5 235.129L878 231.129L876 209.629Z" fill="#FFD25B"/>
<path fill-rule="evenodd" clip-rule="evenodd" d="M923.216 403.629L917.919 419.803C905.306 419.803 899 419.803 899 419.803C899 419.803 905.306 421.433 917.919 424.693C919.937 437.984 920.946 444.629 920.946 444.629C920.946 444.629 922.207 438.611 924.73 426.574L941 422.812L924.73 419.803L923.216 403.629Z" fill="#FFD25B"/>
<path fill-rule="evenodd" clip-rule="evenodd" d="M466.333 207.129L461.667 221.331C450.556 221.331 445 221.331 445 221.331C445 221.331 450.556 222.762 461.667 225.624C463.444 237.294 464.333 243.129 464.333 243.129C464.333 243.129 465.444 237.845 467.667 227.276L482 223.973L467.667 221.331L466.333 207.129Z" fill="#FFD25B"/>
<path fill-rule="evenodd" clip-rule="evenodd" d="M364.713 647.713C364.716 647.748 364.716 647.784 364.712 647.82C364.514 650.089 352.585 652.062 337.91 650.775C323.234 649.489 311.802 646.673 312 644.405C312.011 644.285 312.054 644.168 312.128 644.056L316 624.629L315.814 605.823L318.101 582.262L369.68 586.723L362.566 606.53L364.791 647.718L364.713 647.713ZM999.326 684.545C999.338 684.579 999.347 684.614 999.354 684.649C999.749 686.892 988.737 691.885 974.229 694.44C959.721 696.996 947.949 697.235 947.554 694.993C947.53 694.861 947.547 694.724 947.601 694.582L947.5 677.629L939.069 656.752C937.704 653.372 937.037 649.75 937.11 646.105L937.363 633.389L988.339 624.348C990.6 630.965 991.987 636.726 992.5 641.629C993.013 646.532 993.013 654.032 992.5 664.129L999.403 684.53L999.326 684.545ZM892.749 678.29C892.753 678.325 892.753 678.361 892.751 678.397C892.592 680.669 880.699 682.85 866.003 681.82C851.308 680.79 839.828 678.174 839.987 675.902C839.995 675.786 840.034 675.672 840.102 675.562L843 657.629L843.127 637.26L845.002 613.663L896.651 617.222L889.5 652.129L892.827 678.293L892.749 678.29Z" fill="#847DAA"/>
<path fill-rule="evenodd" clip-rule="evenodd" d="M343.549 588.78C329.493 587.548 318.259 584.711 318.458 582.442C318.656 580.174 330.21 579.334 344.266 580.566C358.321 581.798 369.555 584.635 369.357 586.904C369.158 589.172 357.604 590.012 343.549 588.78ZM963.63 633.099C949.735 635.546 938.149 635.713 937.754 633.47C937.359 631.228 948.302 627.426 962.197 624.978C976.092 622.53 987.678 622.364 988.073 624.606C988.469 626.849 977.526 630.651 963.63 633.099ZM870.56 619.736C856.485 618.749 845.203 616.108 845.362 613.836C845.521 611.565 857.059 610.523 871.133 611.51C885.208 612.496 896.49 615.138 896.331 617.409C896.172 619.681 884.634 620.722 870.56 619.736Z" fill="#60588E"/>
<path d="M355.864 624.462L355.337 630.478L349.648 629.98L349.253 634.492L341.937 633.852L342.332 629.34L322.255 627.583L322.781 621.568L344.361 606.147L351.677 606.787L350.174 623.964L355.864 624.462ZM330.624 623.51L342.534 624.552L343.457 613.998L330.624 623.51ZM984.761 664.377L985.81 670.324L980.185 671.316L980.971 675.776L973.739 677.051L972.953 672.591L953.105 676.091L952.057 670.144L968.91 649.663L976.142 648.388L979.136 665.369L984.761 664.377ZM960.135 669.99L971.908 667.914L970.069 657.481L960.135 669.99ZM868 665.629C857.151 665.629 852 660.651 852 651.59C852 642.568 857.151 637.629 868 637.629C878.81 637.629 884 642.607 884 651.59C884 660.612 878.81 665.629 868 665.629ZM868 660.629C874.183 660.629 877 657.416 877 652.088C877 646.801 874.183 643.629 868 643.629C861.818 643.629 859 646.761 859 652.088C859 657.457 861.818 660.629 868 660.629Z" fill="white"/>
<path fill-rule="evenodd" clip-rule="evenodd" d="M352.955 515.742L357.166 516.623L347.668 583.999C347.513 585.1 346.494 585.866 345.393 585.711C345.349 585.705 345.306 585.697 345.262 585.688C344.077 585.44 343.288 584.316 343.457 583.118L352.955 515.742ZM877.34 546.632L881.566 547.439L873.245 614.971C873.109 616.074 872.105 616.859 871.001 616.723C870.957 616.717 870.913 616.71 870.869 616.702C869.681 616.475 868.872 615.365 869.02 614.163L877.34 546.632ZM947.345 560.683L951.613 560.145L964.568 626.942C964.78 628.034 964.067 629.091 962.975 629.302C962.931 629.311 962.888 629.318 962.844 629.323C961.643 629.475 960.53 628.669 960.3 627.48L947.345 560.683Z" fill="#2B254E"/>
</svg>
