<svg width="1104" height="917" viewBox="0 0 1104 917" fill="none" xmlns="http://www.w3.org/2000/svg">
<path d="M539 307.055C539 302.085 534.971 298.055 530 298.055C525.029 298.055 521 302.085 521 307.055V907.055C521 912.026 525.029 916.055 530 916.055C534.971 916.055 539 912.026 539 907.055V307.055Z" fill="#2B254E"/>
<path fill-rule="evenodd" clip-rule="evenodd" d="M184 335.055L176.5 370.055L130.5 382.055L49 405.055L77 370.055L31.5 379.055L71.5 355.629L36.5 355.555L0 332.055L43.5 335.129C84.1667 340.08 104.5 342.555 104.5 342.555C104.5 342.555 84.1667 330.055 43.5 305.055L184 335.055ZM918 362.055L1058.5 332.055C1036.83 347.104 1026 354.629 1026 354.629C1026 354.629 1038.67 357.104 1064 362.055L1104 389.055L1064 378.129L1012.5 378.055L1070.5 406.055L1006.5 389.055L1053 432.055L978.5 397.055H925.5L918 362.055ZM543.016 79.0348L541.828 51.0068L530.83 29.4488L559.742 49.7853L558.152 24.0962L525.106 0L538.331 2.52302L565.406 18.6532L573.53 44.8445L580.676 5.49775L586.877 37.4006L603.061 15.4853L592.293 56.9307L613.5 32.5553L595 83.0553L543.016 79.0348ZM415.338 664.872L441.716 682.454L435.906 729.291L427.051 812.799L418.911 800.843L415.411 769.843L381.911 812.843L396.248 758.488L374.911 800.843L355.911 823.843L362.411 795.343C375.411 762.677 381.911 746.343 381.911 746.343C381.911 746.343 375.411 757.01 362.411 778.343L342.476 787.869L415.338 664.872ZM550.348 686.881L581.013 694.917L590.768 741.094L609.583 822.935L597.5 812.629L585.74 785.244L584.592 786.109L584.5 844.129L578 831.629L566.5 756.129H565L561 812.629L554 848.129H552L547.5 812.629V781.629L539 806.129L521.5 826.898L550.348 686.881Z" fill="#FFD25B"/>
<path fill-rule="evenodd" clip-rule="evenodd" d="M530 297.629L477.5 432.129H605L567.5 307.629L530 297.629Z" fill="#FFD25B"/>
<mask id="mask0" mask-type="alpha" maskUnits="userSpaceOnUse" x="384" y="422" width="238" height="303">
<path d="M411.5 603.055L390.072 659.096C383.841 675.39 382.769 693.205 387 710.129C390.667 715.462 398.833 719.129 411.5 721.129C424.167 723.129 433.352 723.18 439.055 721.283L446.019 713.737C454.919 704.093 461.834 692.791 466.369 680.475L522.217 528.823L530 528.629V673.797C530 690.343 534.704 706.549 543.564 720.523C550.855 722.927 559.333 724.129 569 724.129C578.667 724.129 585.167 722.296 588.5 718.629C599.252 705.922 605.945 690.281 607.714 673.729L622 540.055L605 432.129C594.778 429.462 582.278 428.129 567.5 428.129C552.722 428.129 522.722 426.271 477.5 422.555L411.5 603.055Z" fill="white"/>
</mask>
<g mask="url(#mask0)">
<path d="M411.5 603.055L390.072 659.096C383.841 675.39 382.769 693.205 387 710.129C390.667 715.462 398.833 719.129 411.5 721.129C424.167 723.129 433.352 723.18 439.055 721.283L446.019 713.737C454.919 704.093 461.834 692.791 466.369 680.475L522.217 528.823L530 528.629V673.797C530 690.343 534.704 706.549 543.564 720.523C550.855 722.927 559.333 724.129 569 724.129C578.667 724.129 585.167 722.296 588.5 718.629C599.252 705.922 605.945 690.281 607.714 673.729L622 540.055L605 432.129C594.778 429.462 582.278 428.129 567.5 428.129C552.722 428.129 522.722 426.271 477.5 422.555L411.5 603.055Z" fill="#324E31"/>
<path fill-rule="evenodd" clip-rule="evenodd" d="M480.666 642.146L445.5 649.629L482.236 612.187L471.973 550.065L509.374 572.053L480.666 642.146Z" fill="#FFD25B"/>
</g>
<path fill-rule="evenodd" clip-rule="evenodd" d="M602 306.555C629.333 325.889 657.167 339.555 685.5 347.555C713.833 355.555 795.667 355.555 931 347.555V432.129L756.059 438.557C745.748 438.936 735.441 437.717 725.504 434.943L622 406.055L685.5 587.055L662.708 589.747L650.5 578.129L645.5 589.629L615.249 595.351L605 578.129L594.658 597.782L550 603.055L561 310.555L602 306.555ZM494.5 298.055L532.5 304.555L428.5 603.055L385 593.629L381 581.129L369.31 590.343L359 588.129V566.129L339.615 585.255L315 581.055L428.5 376.555C393.167 391.604 367.167 399.129 350.5 399.129C333.833 399.129 274.167 399.129 171.5 399.129V359.629V320.555C289.167 313.889 361.667 310.555 389 310.555C416.333 310.555 451.5 306.389 494.5 298.055Z" fill="#2B254E"/>
<path fill-rule="evenodd" clip-rule="evenodd" d="M931 347.555H1018.75C1022.75 347.555 1026 350.801 1026 354.805C1026 358.809 1022.75 362.055 1018.75 362.055H931V347.555ZM84.25 347.555H172V362.055H84.25C80.2459 362.055 77 358.809 77 354.805C77 350.801 80.2459 347.555 84.25 347.555Z" fill="#847DAA"/>
<path fill-rule="evenodd" clip-rule="evenodd" d="M587.145 331.555L597.432 491.072L597.5 491.055L599 507.129L593.5 507.055V492.497L584.162 493.355L585.5 507.629H580V493.738L571.18 494.549L572.5 508.629H567V494.933L558 495.761V509.629H553.5L553.986 495.528L550.229 331.555C536.773 331.555 525.196 331.555 524.5 331.555C523 331.555 504 294.555 574 300.055C598.571 301.986 610.709 296.461 618 300.055C622.86 302.451 623.694 309.118 620.5 320.055C608.833 327.722 598.833 331.555 590.5 331.555C589.582 331.555 588.452 331.555 587.145 331.555Z" fill="#60588E"/>
<path fill-rule="evenodd" clip-rule="evenodd" d="M383.5 201.129C388.014 220.984 401.014 236.46 422.5 247.555C443.986 258.651 476.986 267.151 521.5 273.055L654.316 273.121L677.361 262.945L690.157 257.294C704.544 250.941 717.039 240.967 726.424 228.346L731 222.191C730.18 217.649 717.347 210.295 692.5 200.129C667.653 189.962 635.291 179.157 595.414 167.713C579.42 156.908 555.711 154.319 524.286 159.946C495.976 165.015 452.392 164.975 400 186.129C396.157 187.681 390.657 192.681 383.5 201.129Z" fill="#2B254E"/>
<path fill-rule="evenodd" clip-rule="evenodd" d="M482.5 292.055C476.5 293.389 473.5 298.222 473.5 306.555C473.5 314.889 490.5 323.247 524.5 331.629C528.724 325.472 532.891 321.139 537 318.629C541.109 316.119 548.442 313.428 559 310.555L482.5 292.055Z" fill="#847DAA"/>
<mask id="mask1" mask-type="alpha" maskUnits="userSpaceOnUse" x="440" y="135" width="222" height="175">
<path d="M550.862 309.041C573.226 309.041 582.278 309.621 610.734 303.207C618.102 301.546 619.177 297.278 625.373 293.735C629.321 291.478 634.351 288.266 637.727 286.906C661.127 277.478 661.403 247.253 661.403 221.943C661.403 185.664 618.658 152.465 588.077 139.79C570.883 132.663 573.125 138.222 550.862 138.222C535.473 138.222 546.884 132.333 533.537 137.478C493.235 153.015 445.307 182.95 441.009 218.594C437.864 244.678 446.155 281.903 476.564 293.79C478.372 294.497 486.48 297.165 490.172 298.895C493.701 300.55 494.573 303.599 496.269 304.288C512.38 310.832 530.34 309.041 550.862 309.041Z" fill="white"/>
</mask>
<g mask="url(#mask1)">
<path d="M541.797 308.562C564.038 310.9 572.981 312.423 601.951 309.019C609.452 308.137 610.967 304.004 617.5 301.129C621.662 299.297 627 296.629 630.5 295.629C654.757 288.698 658.191 258.667 660.836 233.497C664.629 197.416 625.588 159.931 596.5 144.129C580.145 135.244 581.793 141.006 559.652 138.679C544.348 137.071 556.312 132.406 542.5 136.129C500.795 147.368 450 172.129 442 207.129C436.146 232.741 440.5 270.629 469.5 285.629C471.225 286.521 479.009 290.021 482.5 292.129C485.837 294.143 486.385 297.266 488 298.129C503.339 306.321 521.388 306.417 541.797 308.562Z" fill="#FF6D5B"/>
</g>
<path fill-rule="evenodd" clip-rule="evenodd" d="M508.488 184.007L522.16 185.929C527.046 186.615 531.281 189.66 533.488 194.073C539.058 205.209 541.731 211.575 541.507 213.171C541.283 214.765 537.119 219.081 529.015 226.12C525.739 228.966 521.39 230.253 517.092 229.649L501.249 227.422C496.615 226.771 492.551 223.995 490.259 219.916C485.978 212.297 483.994 207.372 484.307 205.142C484.625 202.886 488.099 197.651 494.73 189.438C498.042 185.335 503.266 183.273 508.488 184.007ZM606.969 195.39L616.806 196.251C621.984 196.704 626.558 199.805 628.896 204.446C634.116 214.811 636.658 220.78 636.52 222.353C636.384 223.915 632.982 228.28 626.316 235.448C623.166 238.834 618.631 240.579 614.024 240.176L602.036 239.127C597.086 238.694 592.671 235.837 590.248 231.498C586.371 224.557 584.527 220.001 584.717 217.83C584.911 215.613 587.708 210.377 593.109 202.122C596.135 197.495 601.461 194.908 606.969 195.39Z" fill="white"/>
<path fill-rule="evenodd" clip-rule="evenodd" d="M518 212.629C514.134 212.629 511 209.495 511 205.629C511 201.763 514.134 198.629 518 198.629C521.866 198.629 525 201.763 525 205.629C525 209.495 521.866 212.629 518 212.629ZM612.819 223.811C608.953 223.811 605.819 220.677 605.819 216.811C605.819 212.945 608.953 209.811 612.819 209.811C616.685 209.811 619.819 212.945 619.819 216.811C619.819 220.677 616.685 223.811 612.819 223.811ZM567.634 203.538C567.908 202.877 568.514 202.413 569.223 202.321C570.319 202.178 571.322 202.951 571.464 204.046L576.67 244.091C576.691 244.253 576.692 244.416 576.674 244.578C576.547 245.675 575.555 246.462 574.458 246.336L553.634 243.933C553.45 243.912 553.269 243.865 553.097 243.793C552.077 243.37 551.593 242.2 552.016 241.18L567.634 203.538ZM478.74 244.051L502.357 244.905L519.864 258.718L540.858 250.734L556.369 264.686L580.715 254.463L593.882 263.566L606.397 256.175L634.423 262.736L606.99 264.655L588.873 277.951L576.923 264.752L553.68 276.402L537.066 261.023L520.701 270.689L500.955 253.524L478.74 244.051Z" fill="#2B254E"/>
<path fill-rule="evenodd" clip-rule="evenodd" d="M528.439 80.655L525.5 113.555L603 123.055L604.496 89.0242C604.791 82.3121 600.276 76.3369 593.739 74.787C580.107 71.5551 569.396 69.4984 561.606 68.617C555.395 67.9143 548.832 67.6782 541.918 67.9086C534.851 68.1441 529.069 73.6122 528.439 80.655Z" fill="#60588E"/>
<mask id="mask2" mask-type="alpha" maskUnits="userSpaceOnUse" x="383" y="76" width="348" height="148">
<path d="M530 76.1289C509.667 119.462 480.667 148.771 443 164.055C418.128 174.148 400.433 179.98 391.196 189.762C388.268 192.863 385.703 196.652 383.5 201.129C392.318 203.902 398.818 205.736 403 206.629C454.5 217.629 492.832 211.542 516 207.129C527.06 205.022 543.84 200.939 566.341 194.88C579.215 191.414 592.652 190.556 605.861 192.359C660.924 199.871 694.637 205.628 707 209.629C720.82 214.101 728.714 218.577 730.683 223.055C732.162 212.697 728.464 204.559 719.589 198.64C715.265 195.757 690.04 190.068 671.5 178.055C661.397 171.509 647.282 159.008 629.156 140.553C618.357 129.558 610.833 115.773 607.426 100.742L604 85.6289L530 76.1289Z" fill="white"/>
</mask>
<g mask="url(#mask2)">
<path d="M530 76.1289C509.667 119.462 480.667 148.771 443 164.055C418.128 174.148 400.433 179.98 391.196 189.762C388.268 192.863 385.703 196.652 383.5 201.129C392.318 203.902 398.818 205.736 403 206.629C454.5 217.629 492.832 211.542 516 207.129C527.06 205.022 543.84 200.939 566.341 194.88C579.215 191.414 592.652 190.556 605.861 192.359C660.924 199.871 694.637 205.628 707 209.629C720.82 214.101 728.714 218.577 730.683 223.055C732.162 212.697 728.464 204.559 719.589 198.64C715.265 195.757 690.04 190.068 671.5 178.055C661.397 171.509 647.282 159.008 629.156 140.553C618.357 129.558 610.833 115.773 607.426 100.742L604 85.6289L530 76.1289Z" fill="#60588E"/>
<mask id="mask3" mask-type="alpha" maskUnits="userSpaceOnUse" x="484" y="79" width="92" height="71">
<path d="M484.5 139.129L516.5 118.129L530 149.629L546 118.129L576 114.129L546 100.629L525.5 79.6289L484.5 139.129Z" fill="white"/>
</mask>
<g mask="url(#mask3)">
<path d="M484.5 139.129L516.5 118.129L530 149.629L546 118.129L576 114.129L546 100.629L525.5 79.6289L484.5 139.129Z" fill="#2B254E"/>
<path fill-rule="evenodd" clip-rule="evenodd" d="M538 93.1289L516.5 144.629L530 157.129L590.5 114.629L538 93.1289Z" fill="#FFD25B"/>
</g>
</g>
<path fill-rule="evenodd" clip-rule="evenodd" d="M265 185.629L258 207.129C241.333 207.129 233 207.129 233 207.129C233 207.129 241.333 209.296 258 213.629C260.667 231.296 262 240.129 262 240.129C262 240.129 263.667 232.129 267 216.129L288.5 211.129L267 207.129L265 185.629Z" fill="#FFD25B"/>
<path fill-rule="evenodd" clip-rule="evenodd" d="M778 76.6289L771 98.1289C754.333 98.1289 746 98.1289 746 98.1289C746 98.1289 754.333 100.296 771 104.629C773.667 122.296 775 131.129 775 131.129C775 131.129 776.667 123.129 780 107.129L801.5 102.129L780 98.1289L778 76.6289Z" fill="#FFD25B"/>
<path fill-rule="evenodd" clip-rule="evenodd" d="M825.216 270.629L819.919 286.803C807.306 286.803 801 286.803 801 286.803C801 286.803 807.306 288.433 819.919 291.693C821.937 304.984 822.946 311.629 822.946 311.629C822.946 311.629 824.207 305.611 826.73 293.574L843 289.812L826.73 286.803L825.216 270.629Z" fill="#FFD25B"/>
<path fill-rule="evenodd" clip-rule="evenodd" d="M368.333 74.1289L363.667 88.3307C352.556 88.3307 347 88.3307 347 88.3307C347 88.3307 352.556 89.7619 363.667 92.6243C365.444 104.294 366.333 110.129 366.333 110.129C366.333 110.129 367.444 104.845 369.667 94.2757L384 90.9729L369.667 88.3307L368.333 74.1289Z" fill="#FFD25B"/>
<path fill-rule="evenodd" clip-rule="evenodd" d="M266.713 514.713C266.716 514.748 266.716 514.784 266.712 514.82C266.514 517.089 254.585 519.062 239.91 517.775C225.234 516.489 213.802 513.673 214 511.405C214.011 511.285 214.054 511.168 214.128 511.056L218 491.629L217.814 472.823L220.101 449.262L271.68 453.723L264.566 473.53L266.791 514.718L266.713 514.713ZM901.326 551.545C901.338 551.579 901.347 551.614 901.354 551.649C901.749 553.892 890.737 558.885 876.229 561.44C861.721 563.996 849.949 564.235 849.554 561.993C849.53 561.861 849.547 561.724 849.601 561.582L849.5 544.629L841.069 523.752C839.704 520.372 839.037 516.75 839.11 513.105L839.363 500.389L890.339 491.348C892.6 497.965 893.987 503.726 894.5 508.629C895.013 513.532 895.013 521.032 894.5 531.129L901.403 551.53L901.326 551.545ZM794.749 545.29C794.753 545.325 794.753 545.361 794.751 545.397C794.592 547.669 782.699 549.85 768.003 548.82C753.308 547.79 741.828 545.174 741.987 542.902C741.995 542.786 742.034 542.672 742.102 542.562L745 524.629L745.127 504.26L747.002 480.663L798.651 484.222L791.5 519.129L794.827 545.293L794.749 545.29Z" fill="#847DAA"/>
<path fill-rule="evenodd" clip-rule="evenodd" d="M245.549 455.78C231.493 454.548 220.259 451.711 220.458 449.442C220.656 447.174 232.21 446.334 246.266 447.566C260.321 448.798 271.555 451.635 271.357 453.904C271.158 456.172 259.604 457.012 245.549 455.78ZM865.63 500.099C851.735 502.546 840.149 502.713 839.754 500.47C839.359 498.228 850.302 494.426 864.197 491.978C878.092 489.53 889.678 489.364 890.073 491.606C890.469 493.849 879.526 497.651 865.63 500.099ZM772.56 486.736C758.485 485.749 747.203 483.108 747.362 480.836C747.521 478.565 759.059 477.523 773.133 478.51C787.208 479.496 798.49 482.138 798.331 484.409C798.172 486.681 786.634 487.722 772.56 486.736Z" fill="#60588E"/>
<path d="M257.864 491.462L257.337 497.478L251.648 496.98L251.253 501.492L243.937 500.852L244.332 496.34L224.255 494.583L224.781 488.568L246.361 473.147L253.677 473.787L252.174 490.964L257.864 491.462ZM232.624 490.51L244.534 491.552L245.457 480.998L232.624 490.51ZM886.761 531.377L887.81 537.324L882.185 538.316L882.971 542.776L875.739 544.051L874.953 539.591L855.105 543.091L854.057 537.144L870.91 516.663L878.142 515.388L881.136 532.369L886.761 531.377ZM862.135 536.99L873.908 534.914L872.069 524.481L862.135 536.99ZM770 532.629C759.151 532.629 754 527.651 754 518.59C754 509.568 759.151 504.629 770 504.629C780.81 504.629 786 509.607 786 518.59C786 527.612 780.81 532.629 770 532.629ZM770 527.629C776.183 527.629 779 524.416 779 519.088C779 513.801 776.183 510.629 770 510.629C763.818 510.629 761 513.761 761 519.088C761 524.457 763.818 527.629 770 527.629Z" fill="white"/>
<path fill-rule="evenodd" clip-rule="evenodd" d="M254.955 382.742L259.166 383.623L249.668 450.999C249.513 452.1 248.494 452.866 247.393 452.711C247.349 452.705 247.306 452.697 247.262 452.688C246.077 452.44 245.288 451.316 245.457 450.118L254.955 382.742ZM779.34 413.632L783.566 414.439L775.245 481.971C775.109 483.074 774.105 483.859 773.001 483.723C772.957 483.717 772.913 483.71 772.869 483.702C771.681 483.475 770.872 482.365 771.02 481.163L779.34 413.632ZM849.345 427.683L853.613 427.145L866.568 493.942C866.78 495.034 866.067 496.091 864.975 496.302C864.931 496.311 864.888 496.318 864.844 496.323C863.643 496.475 862.53 495.669 862.3 494.48L849.345 427.683Z" fill="#2B254E"/>
</svg>
