<svg width="1440" height="1024" viewBox="0 0 1440 1024" fill="none" xmlns="http://www.w3.org/2000/svg">
<rect width="1440" height="1024" fill="#FFDAE1"/>
<path fill-rule="evenodd" clip-rule="evenodd" d="M93 907.75H110.273V718H265.727V907.75H283V925H93V907.75ZM153.455 881.875V916.375H179.364V881.875H153.455ZM196.636 881.875V916.375H222.545V881.875H196.636ZM144.818 838.75H127.545V856H144.818V838.75ZM213.909 838.75H196.636V856H213.909V838.75ZM179.364 838.75H162.091V856H179.364V838.75ZM248.455 838.75H231.182V856H248.455V838.75ZM144.818 804.25H127.545V821.5H144.818V804.25ZM213.909 804.25H196.636V821.5H213.909V804.25ZM179.364 804.25H162.091V821.5H179.364V804.25ZM248.455 804.25H231.182V821.5H248.455V804.25ZM144.818 769.75H127.545V787H144.818V769.75ZM213.909 769.75H196.636V787H213.909V769.75ZM179.364 769.75H162.091V787H179.364V769.75ZM248.455 769.75H231.182V787H248.455V769.75ZM144.818 735.25H127.545V752.5H144.818V735.25ZM213.909 735.25H196.636V752.5H213.909V735.25ZM179.364 735.25H162.091V752.5H179.364V735.25ZM248.455 735.25H231.182V752.5H248.455V735.25Z" fill="#A81432"/>
<path fill-rule="evenodd" clip-rule="evenodd" d="M1122 803.75H1139.27V614H1294.73V803.75H1312V821H1122V803.75ZM1182.45 777.875V812.375H1208.36V777.875H1182.45ZM1225.64 777.875V812.375H1251.55V777.875H1225.64ZM1173.82 734.75H1156.55V752H1173.82V734.75ZM1242.91 734.75H1225.64V752H1242.91V734.75ZM1208.36 734.75H1191.09V752H1208.36V734.75ZM1277.45 734.75H1260.18V752H1277.45V734.75ZM1173.82 700.25H1156.55V717.5H1173.82V700.25ZM1242.91 700.25H1225.64V717.5H1242.91V700.25ZM1208.36 700.25H1191.09V717.5H1208.36V700.25ZM1277.45 700.25H1260.18V717.5H1277.45V700.25ZM1173.82 665.75H1156.55V683H1173.82V665.75ZM1242.91 665.75H1225.64V683H1242.91V665.75ZM1208.36 665.75H1191.09V683H1208.36V665.75ZM1277.45 665.75H1260.18V683H1277.45V665.75ZM1173.82 631.25H1156.55V648.5H1173.82V631.25ZM1242.91 631.25H1225.64V648.5H1242.91V631.25ZM1208.36 631.25H1191.09V648.5H1208.36V631.25ZM1277.45 631.25H1260.18V648.5H1277.45V631.25Z" fill="#A81432"/>
<path fill-rule="evenodd" clip-rule="evenodd" d="M436 929H283V762H380.364V817.667H436V929ZM324.727 894.208H303.864V922.042H324.727V894.208ZM359.5 894.208H338.636V922.042H359.5V894.208ZM415.136 894.208H394.273V922.042H415.136V894.208ZM310.818 859.417H296.909V873.333H310.818V859.417ZM366.455 859.417H352.545V873.333H366.455V859.417ZM338.636 859.417H324.727V873.333H338.636V859.417ZM401.227 859.417H387.318V873.333H401.227V859.417ZM422.091 859.417H408.182V873.333H422.091V859.417ZM310.818 831.583H296.909V845.5H310.818V831.583ZM366.455 831.583H352.545V845.5H366.455V831.583ZM338.636 831.583H324.727V845.5H338.636V831.583ZM401.227 831.583H387.318V845.5H401.227V831.583ZM422.091 831.583H408.182V845.5H422.091V831.583ZM310.818 803.75H296.909V817.667H310.818V803.75ZM366.455 803.75H352.545V817.667H366.455V803.75ZM338.636 803.75H324.727V817.667H338.636V803.75ZM310.818 775.917H296.909V789.833H310.818V775.917ZM366.455 775.917H352.545V789.833H366.455V775.917ZM338.636 775.917H324.727V789.833H338.636V775.917Z" fill="#A81432"/>
<path fill-rule="evenodd" clip-rule="evenodd" d="M1440 846H1287V679H1384.36V734.667H1440V846ZM1328.73 811.208H1307.86V839.042H1328.73V811.208ZM1363.5 811.208H1342.64V839.042H1363.5V811.208ZM1419.14 811.208H1398.27V839.042H1419.14V811.208ZM1314.82 776.417H1300.91V790.333H1314.82V776.417ZM1370.45 776.417H1356.55V790.333H1370.45V776.417ZM1342.64 776.417H1328.73V790.333H1342.64V776.417ZM1405.23 776.417H1391.32V790.333H1405.23V776.417ZM1426.09 776.417H1412.18V790.333H1426.09V776.417ZM1314.82 748.583H1300.91V762.5H1314.82V748.583ZM1370.45 748.583H1356.55V762.5H1370.45V748.583ZM1342.64 748.583H1328.73V762.5H1342.64V748.583ZM1405.23 748.583H1391.32V762.5H1405.23V748.583ZM1426.09 748.583H1412.18V762.5H1426.09V748.583ZM1314.82 720.75H1300.91V734.667H1314.82V720.75ZM1370.45 720.75H1356.55V734.667H1370.45V720.75ZM1342.64 720.75H1328.73V734.667H1342.64V720.75ZM1314.82 692.917H1300.91V706.833H1314.82V692.917ZM1370.45 692.917H1356.55V706.833H1370.45V692.917ZM1342.64 692.917H1328.73V706.833H1342.64V692.917Z" fill="#A81432"/>
<circle cx="935.5" cy="415.5" r="9.5" fill="#A81432"/>
<circle cx="935.5" cy="442.5" r="9.5" fill="#A81432"/>
<circle cx="962.5" cy="415.5" r="9.5" fill="#A81432"/>
<circle cx="962.5" cy="442.5" r="9.5" fill="#A81432"/>
<circle cx="935.5" cy="469.5" r="9.5" fill="#A81432"/>
<circle cx="935.5" cy="496.5" r="9.5" fill="#A81432"/>
<circle cx="962.5" cy="469.5" r="9.5" fill="#A81432"/>
<circle cx="962.5" cy="496.5" r="9.5" fill="#A81432"/>
<circle cx="989.5" cy="415.5" r="9.5" fill="#A81432"/>
<circle cx="989.5" cy="442.5" r="9.5" fill="#A81432"/>
<circle cx="1016.5" cy="415.5" r="9.5" fill="#A81432"/>
<circle cx="1016.5" cy="442.5" r="9.5" fill="#A81432"/>
<circle cx="989.5" cy="469.5" r="9.5" fill="#A81432"/>
<circle cx="989.5" cy="496.5" r="9.5" fill="#A81432"/>
<circle cx="1016.5" cy="469.5" r="9.5" fill="#A81432"/>
<circle cx="1016.5" cy="496.5" r="9.5" fill="#A81432"/>
<circle cx="935.5" cy="523.5" r="9.5" fill="#A81432"/>
<circle cx="935.5" cy="550.5" r="9.5" fill="#A81432"/>
<circle cx="962.5" cy="523.5" r="9.5" fill="#A81432"/>
<circle cx="962.5" cy="550.5" r="9.5" fill="#A81432"/>
<circle cx="935.5" cy="577.5" r="9.5" fill="#A81432"/>
<circle cx="935.5" cy="604.5" r="9.5" fill="#A81432"/>
<circle cx="962.5" cy="577.5" r="9.5" fill="#A81432"/>
<circle cx="962.5" cy="604.5" r="9.5" fill="#A81432"/>
<circle cx="989.5" cy="523.5" r="9.5" fill="#A81432"/>
<circle cx="989.5" cy="550.5" r="9.5" fill="#A81432"/>
<circle cx="1016.5" cy="523.5" r="9.5" fill="#A81432"/>
<circle cx="1016.5" cy="550.5" r="9.5" fill="#A81432"/>
<circle cx="989.5" cy="577.5" r="9.5" fill="#A81432"/>
<circle cx="989.5" cy="604.5" r="9.5" fill="#A81432"/>
<circle cx="1016.5" cy="577.5" r="9.5" fill="#A81432"/>
<circle cx="1016.5" cy="604.5" r="9.5" fill="#A81432"/>
<circle cx="345.5" cy="152.5" r="9.5" fill="#A81432"/>
<circle cx="345.5" cy="179.5" r="9.5" fill="#A81432"/>
<circle cx="372.5" cy="152.5" r="9.5" fill="#A81432"/>
<circle cx="372.5" cy="179.5" r="9.5" fill="#A81432"/>
<circle cx="345.5" cy="206.5" r="9.5" fill="#A81432"/>
<circle cx="345.5" cy="233.5" r="9.5" fill="#A81432"/>
<circle cx="372.5" cy="206.5" r="9.5" fill="#A81432"/>
<circle cx="372.5" cy="233.5" r="9.5" fill="#A81432"/>
<circle cx="399.5" cy="152.5" r="9.5" fill="#A81432"/>
<circle cx="399.5" cy="179.5" r="9.5" fill="#A81432"/>
<circle cx="426.5" cy="152.5" r="9.5" fill="#A81432"/>
<circle cx="426.5" cy="179.5" r="9.5" fill="#A81432"/>
<circle cx="399.5" cy="206.5" r="9.5" fill="#A81432"/>
<circle cx="399.5" cy="233.5" r="9.5" fill="#A81432"/>
<circle cx="426.5" cy="206.5" r="9.5" fill="#A81432"/>
<circle cx="426.5" cy="233.5" r="9.5" fill="#A81432"/>
<circle cx="345.5" cy="260.5" r="9.5" fill="#A81432"/>
<circle cx="345.5" cy="287.5" r="9.5" fill="#A81432"/>
<circle cx="372.5" cy="260.5" r="9.5" fill="#A81432"/>
<circle cx="372.5" cy="287.5" r="9.5" fill="#A81432"/>
<circle cx="345.5" cy="314.5" r="9.5" fill="#A81432"/>
<circle cx="345.5" cy="341.5" r="9.5" fill="#A81432"/>
<circle cx="372.5" cy="314.5" r="9.5" fill="#A81432"/>
<circle cx="372.5" cy="341.5" r="9.5" fill="#A81432"/>
<circle cx="399.5" cy="260.5" r="9.5" fill="#A81432"/>
<circle cx="399.5" cy="287.5" r="9.5" fill="#A81432"/>
<circle cx="426.5" cy="260.5" r="9.5" fill="#A81432"/>
<circle cx="426.5" cy="287.5" r="9.5" fill="#A81432"/>
<circle cx="399.5" cy="314.5" r="9.5" fill="#A81432"/>
<circle cx="399.5" cy="341.5" r="9.5" fill="#A81432"/>
<circle cx="426.5" cy="314.5" r="9.5" fill="#A81432"/>
<circle cx="426.5" cy="341.5" r="9.5" fill="#A81432"/>
<path d="M3.32594e-05 841.144C117.455 919.598 189.884 929.283 330.468 887.107C761.151 756.904 1004.08 735.603 1440 780.192V1023L3.32594e-05 1023V841.144Z" fill="#A81432"/>
</svg>
