<svg width="1512" height="854" viewBox="0 0 1512 854" fill="none" xmlns="http://www.w3.org/2000/svg">
<g clip-path="url(#clip0)">
<path fill-rule="evenodd" clip-rule="evenodd" d="M19.2621 774.784H37.4452V575.033H201.093V774.784H219.276V792.943H19.2621V774.784ZM82.903 747.545V783.863H110.178V747.545H82.903ZM128.361 747.545V783.863H155.635V747.545H128.361ZM73.8114 702.147H55.6283V720.306H73.8114V702.147ZM146.544 702.147H128.361V720.306H146.544V702.147ZM110.178 702.147H91.9945V720.306H110.178V702.147ZM182.91 702.147H164.727V720.306H182.91V702.147ZM73.8114 665.829H55.6283V683.988H73.8114V665.829ZM146.544 665.829H128.361V683.988H146.544V665.829ZM110.178 665.829H91.9945V683.988H110.178V665.829ZM182.91 665.829H164.727V683.988H182.91V665.829ZM73.8114 629.51H55.6283V647.669H73.8114V629.51ZM146.544 629.51H128.361V647.669H146.544V629.51ZM110.178 629.51H91.9945V647.669H110.178V629.51ZM182.91 629.51H164.727V647.669H182.91V629.51ZM73.8114 593.192H55.6283V611.351H73.8114V593.192ZM146.544 593.192H128.361V611.351H146.544V593.192ZM110.178 593.192H91.9945V611.351H110.178V593.192ZM182.91 593.192H164.727V611.351H182.91V593.192Z" fill="#A81432"/>
<path fill-rule="evenodd" clip-rule="evenodd" d="M1177.24 690.567H1195.42V490.816H1359.07V690.567H1377.25V708.726H1177.24V690.567ZM1240.88 663.328V699.647H1268.15V663.328H1240.88ZM1286.34 663.328V699.647H1313.61V663.328H1286.34ZM1231.79 617.93H1213.61V636.09H1231.79V617.93ZM1304.52 617.93H1286.34V636.09H1304.52V617.93ZM1268.15 617.93H1249.97V636.09H1268.15V617.93ZM1340.89 617.93H1322.7V636.09H1340.89V617.93ZM1231.79 581.612H1213.61V599.771H1231.79V581.612ZM1304.52 581.612H1286.34V599.771H1304.52V581.612ZM1268.15 581.612H1249.97V599.771H1268.15V581.612ZM1340.89 581.612H1322.7V599.771H1340.89V581.612ZM1231.79 545.294H1213.61V563.453H1231.79V545.294ZM1304.52 545.294H1286.34V563.453H1304.52V545.294ZM1268.15 545.294H1249.97V563.453H1268.15V545.294ZM1340.89 545.294H1322.7V563.453H1340.89V545.294ZM1231.79 508.975H1213.61V527.135H1231.79V508.975ZM1304.52 508.975H1286.34V527.135H1304.52V508.975ZM1268.15 508.975H1249.97V527.135H1268.15V508.975ZM1340.89 508.975H1322.7V527.135H1340.89V508.975Z" fill="#A81432"/>
<path fill-rule="evenodd" clip-rule="evenodd" d="M380.34 797.154H219.276V621.352H321.772V679.952H380.34V797.154ZM263.203 760.528H241.24V789.829H263.203V760.528ZM299.808 760.528H277.845V789.829H299.808V760.528ZM358.377 760.528H336.414V789.829H358.377V760.528ZM248.561 723.903H233.919V738.553H248.561V723.903ZM307.13 723.903H292.487V738.553H307.13V723.903ZM277.845 723.903H263.203V738.553H277.845V723.903ZM343.735 723.903H329.093V738.553H343.735V723.903ZM365.698 723.903H351.056V738.553H365.698V723.903ZM248.561 694.603H233.919V709.253H248.561V694.603ZM307.13 694.603H292.487V709.253H307.13V694.603ZM277.845 694.603H263.203V709.253H277.845V694.603ZM343.735 694.603H329.093V709.253H343.735V694.603ZM365.698 694.603H351.056V709.253H365.698V694.603ZM248.561 665.302H233.919V679.952H248.561V665.302ZM307.13 665.302H292.487V679.952H307.13V665.302ZM277.845 665.302H263.203V679.952H277.845V665.302ZM248.561 636.002H233.919V650.652H248.561V636.002ZM307.13 636.002H292.487V650.652H307.13V636.002ZM277.845 636.002H263.203V650.652H277.845V636.002Z" fill="#A81432"/>
<path fill-rule="evenodd" clip-rule="evenodd" d="M1512 735.044H1350.94V559.242H1453.43V617.843H1512V735.044ZM1394.86 698.419H1372.9V727.719H1394.86V698.419ZM1431.47 698.419H1409.5V727.719H1431.47V698.419ZM1490.04 698.419H1468.07V727.719H1490.04V698.419ZM1380.22 661.793H1365.58V676.444H1380.22V661.793ZM1438.79 661.793H1424.15V676.444H1438.79V661.793ZM1409.5 661.793H1394.86V676.444H1409.5V661.793ZM1475.39 661.793H1460.75V676.444H1475.39V661.793ZM1497.36 661.793H1482.72V676.444H1497.36V661.793ZM1380.22 632.493H1365.58V647.143H1380.22V632.493ZM1438.79 632.493H1424.15V647.143H1438.79V632.493ZM1409.5 632.493H1394.86V647.143H1409.5V632.493ZM1475.39 632.493H1460.75V647.143H1475.39V632.493ZM1497.36 632.493H1482.72V647.143H1497.36V632.493ZM1380.22 603.193H1365.58V617.843H1380.22V603.193ZM1438.79 603.193H1424.15V617.843H1438.79V603.193ZM1409.5 603.193H1394.86V617.843H1409.5V603.193ZM1380.22 573.892H1365.58V588.543H1380.22V573.892ZM1438.79 573.892H1424.15V588.543H1438.79V573.892ZM1409.5 573.892H1394.86V588.543H1409.5V573.892Z" fill="#A81432"/>
<circle cx="980.91" cy="279.481" r="10.0007" fill="#A81432"/>
<circle cx="980.91" cy="307.904" r="10.0007" fill="#A81432"/>
<circle cx="1009.33" cy="279.481" r="10.0007" fill="#A81432"/>
<circle cx="1009.33" cy="307.904" r="10.0007" fill="#A81432"/>
<circle cx="980.91" cy="336.327" r="10.0007" fill="#A81432"/>
<circle cx="980.91" cy="364.75" r="10.0007" fill="#A81432"/>
<circle cx="1009.33" cy="336.327" r="10.0007" fill="#A81432"/>
<circle cx="1009.33" cy="364.75" r="10.0007" fill="#A81432"/>
<circle cx="1037.76" cy="279.481" r="10.0007" fill="#A81432"/>
<circle cx="1037.76" cy="307.904" r="10.0007" fill="#A81432"/>
<circle cx="1066.18" cy="279.481" r="10.0007" fill="#A81432"/>
<circle cx="1066.18" cy="307.904" r="10.0007" fill="#A81432"/>
<circle cx="1037.76" cy="336.327" r="10.0007" fill="#A81432"/>
<circle cx="1037.76" cy="364.75" r="10.0007" fill="#A81432"/>
<circle cx="1066.18" cy="336.327" r="10.0007" fill="#A81432"/>
<circle cx="1066.18" cy="364.75" r="10.0007" fill="#A81432"/>
<circle cx="980.91" cy="393.173" r="10.0007" fill="#A81432"/>
<circle cx="980.91" cy="421.596" r="10.0007" fill="#A81432"/>
<circle cx="1009.33" cy="393.173" r="10.0007" fill="#A81432"/>
<circle cx="1009.33" cy="421.596" r="10.0007" fill="#A81432"/>
<circle cx="980.91" cy="450.019" r="10.0007" fill="#A81432"/>
<circle cx="980.91" cy="478.442" r="10.0007" fill="#A81432"/>
<circle cx="1009.33" cy="450.019" r="10.0007" fill="#A81432"/>
<circle cx="1009.33" cy="478.442" r="10.0007" fill="#A81432"/>
<circle cx="1037.76" cy="393.173" r="10.0007" fill="#A81432"/>
<circle cx="1037.76" cy="421.596" r="10.0007" fill="#A81432"/>
<circle cx="1066.18" cy="393.173" r="10.0007" fill="#A81432"/>
<circle cx="1066.18" cy="421.596" r="10.0007" fill="#A81432"/>
<circle cx="1037.76" cy="450.019" r="10.0007" fill="#A81432"/>
<circle cx="1037.76" cy="478.442" r="10.0007" fill="#A81432"/>
<circle cx="1066.18" cy="450.019" r="10.0007" fill="#A81432"/>
<circle cx="1066.18" cy="478.442" r="10.0007" fill="#A81432"/>
<circle cx="390.341" cy="125.001" r="10.0007" fill="#A81432"/>
<circle cx="390.341" cy="153.424" r="10.0007" fill="#A81432"/>
<circle cx="418.764" cy="125.001" r="10.0007" fill="#A81432"/>
<circle cx="418.764" cy="153.424" r="10.0007" fill="#A81432"/>
<circle cx="390.341" cy="181.847" r="10.0007" fill="#A81432"/>
<circle cx="390.341" cy="210.27" r="10.0007" fill="#A81432"/>
<circle cx="418.764" cy="181.847" r="10.0007" fill="#A81432"/>
<circle cx="418.764" cy="210.27" r="10.0007" fill="#A81432"/>
<circle cx="447.187" cy="125.001" r="10.0007" fill="#A81432"/>
<circle cx="447.187" cy="153.424" r="10.0007" fill="#A81432"/>
<circle cx="475.61" cy="125.001" r="10.0007" fill="#A81432"/>
<circle cx="475.61" cy="153.424" r="10.0007" fill="#A81432"/>
<circle cx="447.187" cy="181.847" r="10.0007" fill="#A81432"/>
<circle cx="447.187" cy="210.27" r="10.0007" fill="#A81432"/>
<circle cx="475.61" cy="181.847" r="10.0007" fill="#A81432"/>
<circle cx="475.61" cy="210.27" r="10.0007" fill="#A81432"/>
<circle cx="390.341" cy="238.693" r="10.0007" fill="#A81432"/>
<circle cx="390.341" cy="267.116" r="10.0007" fill="#A81432"/>
<circle cx="418.764" cy="238.693" r="10.0007" fill="#A81432"/>
<circle cx="418.764" cy="267.116" r="10.0007" fill="#A81432"/>
<circle cx="390.341" cy="295.539" r="10.0007" fill="#A81432"/>
<circle cx="390.341" cy="323.962" r="10.0007" fill="#A81432"/>
<circle cx="418.764" cy="295.539" r="10.0007" fill="#A81432"/>
<circle cx="418.764" cy="323.962" r="10.0007" fill="#A81432"/>
<circle cx="447.187" cy="238.693" r="10.0007" fill="#A81432"/>
<circle cx="447.187" cy="267.116" r="10.0007" fill="#A81432"/>
<circle cx="475.61" cy="238.693" r="10.0007" fill="#A81432"/>
<circle cx="475.61" cy="267.116" r="10.0007" fill="#A81432"/>
<circle cx="447.187" cy="295.539" r="10.0007" fill="#A81432"/>
<circle cx="447.187" cy="323.962" r="10.0007" fill="#A81432"/>
<circle cx="475.61" cy="295.539" r="10.0007" fill="#A81432"/>
<circle cx="475.61" cy="323.962" r="10.0007" fill="#A81432"/>
<path d="M-3.89746 748.852C119.748 794.214 195.995 799.814 343.988 775.428C797.371 700.145 1053.1 687.829 1512 713.61V854L-3.89746 854V748.852Z" fill="#A81432"/>
</g>
<defs>
<clipPath id="clip0">
<rect width="1512" height="854" fill="white"/>
</clipPath>
</defs>
</svg>
